<svg xmlns="http://www.w3.org/2000/svg" viewBox="0 0 1024 1024">
  <!-- Background -->
  <rect width="1024" height="1024" rx="200" fill="#ffffff"/>
  
  <!-- Border -->
  <rect x="20" y="20" width="984" height="984" rx="180" fill="none" stroke="#000000" stroke-width="40"/>
  
  <!-- GitHub-style contribution grid -->
  <g transform="translate(150, 300)">
    <!-- Row 1 -->
    <rect x="0" y="0" width="80" height="80" rx="15" fill="none" stroke="#000" stroke-width="8"/>
    <rect x="100" y="0" width="80" height="80" rx="15" fill="#000"/>
    <rect x="200" y="0" width="80" height="80" rx="15" fill="none" stroke="#000" stroke-width="8"/>
    <rect x="300" y="0" width="80" height="80" rx="15" fill="#000"/>
    <rect x="400" y="0" width="80" height="80" rx="15" fill="#000"/>
    <rect x="500" y="0" width="80" height="80" rx="15" fill="none" stroke="#000" stroke-width="8"/>
    <rect x="600" y="0" width="80" height="80" rx="15" fill="#000"/>
    
    <!-- Row 2 -->
    <rect x="0" y="100" width="80" height="80" rx="15" fill="#000"/>
    <rect x="100" y="100" width="80" height="80" rx="15" fill="none" stroke="#000" stroke-width="8"/>
    <rect x="200" y="100" width="80" height="80" rx="15" fill="#000"/>
    <rect x="300" y="100" width="80" height="80" rx="15" fill="none" stroke="#000" stroke-width="8"/>
    <rect x="400" y="100" width="80" height="80" rx="15" fill="#000"/>
    <rect x="500" y="100" width="80" height="80" rx="15" fill="#000"/>
    <rect x="600" y="100" width="80" height="80" rx="15" fill="none" stroke="#000" stroke-width="8"/>
    
    <!-- Row 3 -->
    <rect x="0" y="200" width="80" height="80" rx="15" fill="none" stroke="#000" stroke-width="8"/>
    <rect x="100" y="200" width="80" height="80" rx="15" fill="#000"/>
    <rect x="200" y="200" width="80" height="80" rx="15" fill="#000"/>
    <rect x="300" y="200" width="80" height="80" rx="15" fill="#000"/>
    <rect x="400" y="200" width="80" height="80" rx="15" fill="none" stroke="#000" stroke-width="8"/>
    <rect x="500" y="200" width="80" height="80" rx="15" fill="#000"/>
    <rect x="600" y="200" width="80" height="80" rx="15" fill="#000"/>
    
    <!-- Row 4 -->
    <rect x="0" y="300" width="80" height="80" rx="15" fill="#000"/>
    <rect x="100" y="300" width="80" height="80" rx="15" fill="#000"/>
    <rect x="200" y="300" width="80" height="80" rx="15" fill="none" stroke="#000" stroke-width="8"/>
    <rect x="300" y="300" width="80" height="80" rx="15" fill="#000"/>
    <rect x="400" y="300" width="80" height="80" rx="15" fill="#000"/>
    <rect x="500" y="300" width="80" height="80" rx="15" fill="none" stroke="#000" stroke-width="8"/>
    <rect x="600" y="300" width="80" height="80" rx="15" fill="#000"/>
  </g>
</svg>
